<svg width="104" height="110" viewBox="0 0 104 110" fill="none" xmlns="http://www.w3.org/2000/svg">
<path d="M102.184 84.0098C102.608 96.1525 93.1075 106.34 80.9648 106.765L0.0136507 109.591C-0.41023 97.4482 9.08976 87.2611 21.2324 86.8369L102.184 84.0098ZM81.7959 44.9434C93.9387 45.3674 103.439 55.5545 103.015 67.6973L22.0644 64.8701C9.92157 64.4461 0.421644 54.2591 0.845682 42.1162L81.7959 44.9434ZM103.184 0C103.608 12.1428 94.1075 22.3307 81.9648 22.7549L1.01365 25.5811C0.58977 13.4384 10.0898 3.25133 22.2324 2.82715L103.184 0Z" fill="url(#paint0_linear_2004_55)"/>
<defs>
<linearGradient id="paint0_linear_2004_55" x1="103.399" y1="56.7042" x2="0.461564" y2="53.1095" gradientUnits="userSpaceOnUse">
<stop stop-color="#0CC6FF"/>
<stop offset="0.370414" stop-color="#0C92F9"/>
<stop offset="0.740829" stop-color="#0B5DF4"/>
</linearGradient>
</defs>
</svg>
